<?xml version="1.0" encoding="UTF-8"?>
<svg width="64px" height="64px" viewBox="0 0 512 512" version="1.1" xmlns="http://www.w3.org/2000/svg">
    <path fill="#0e7490" d="M414.7 94.8C389.2 69.3 352.3 53 312 43c-13.8-3.4-28-5.7-42.5-7-4.4-.4-8.8-.6-13.3-.8-4.5.1-9 .4-13.4.8C228.4 37.3 214.2 39.6 200 43c-40.3 10-77.2 26.3-102.7 51.8C65.3 126.9 48 169.5 48 216c0 102.5 50.4 158 91.5 203.4 14.5 16 29.5 32.5 39.5 54.9 2.5 5.6 7.4 9.7 13.4 11 6 1.3 12.3-.6 16.9-5.1l46.7-46.7c15.2-15.2 41-15.2 56.2-.1l46.7 46.7c4.6 4.6 10.9 6.5 16.9 5.2s11-5.4 13.4-11c10-22.4 25-38.9 39.5-54.9C413.6 374 464 318.5 464 216c0-46.5-17.3-89.1-49.3-121.2z"/>
</svg>
